<svg width="1440" height="708" viewBox="0 0 1440 708" fill="none" xmlns="http://www.w3.org/2000/svg">
<path d="M1409.22 34.5859L1441.97 34.5859L1441.97 0.820065L1409.22 0.820062L1409.22 34.5859Z" fill="#1c1f21"/>
<path d="M1409.22 82.6533L1441.97 82.6533L1441.97 48.8874L1409.22 48.8874L1409.22 82.6533Z" fill="#1c1f21"/>
<path d="M1409.35 130.482L1441.77 130.482L1441.77 97.1242L1409.35 97.1242L1409.35 130.482Z" fill="#1c1f21"/>
<path d="M1409.35 178.413L1441.77 178.413L1441.77 145.055L1409.35 145.055L1409.35 178.413Z" fill="#1c1f21"/>
<path d="M1409.32 226.548L1441.87 226.548L1441.87 192.986L1409.32 192.986L1409.32 226.548Z" fill="#1c1f21"/>
<path d="M1409.35 274.479L1441.77 274.479L1441.77 241.121L1409.35 241.121L1409.35 274.479Z" fill="#1c1f21"/>
<path d="M1409.32 322.648L1441.87 322.648L1441.87 289.086L1409.32 289.086L1409.32 322.648Z" fill="#1c1f21"/>
<path d="M1409.32 370.682L1441.87 370.682L1441.87 337.12L1409.32 337.12L1409.32 370.682Z" fill="#1c1f21"/>
<path d="M1409.22 418.715L1441.97 418.715L1441.97 385.051L1409.22 385.051L1409.22 418.715Z" fill="#1c1f21"/>
<path d="M1409.22 466.748L1441.97 466.748L1441.97 432.982L1409.22 432.982L1409.22 466.748Z" fill="#1c1f21"/>
<path d="M1409.22 514.815L1441.97 514.815L1441.97 481.05L1409.22 481.05L1409.22 514.815Z" fill="#1c1f21"/>
<path d="M1408.99 562.95L1442.17 562.95L1442.17 528.879L1408.99 528.879L1408.99 562.95Z" fill="#1c1f21"/>
<path d="M1409.22 610.779L1441.97 610.779L1441.97 577.115L1409.22 577.115L1409.22 610.779Z" fill="#1c1f21"/>
<path d="M1408.92 659.017L1442.24 659.017L1442.24 624.843L1408.92 624.843L1408.92 659.017Z" fill="#1c1f21"/>
<path d="M1408.76 707.287L1442.43 707.287L1442.43 672.57L1408.76 672.57L1408.76 707.287Z" fill="#1c1f21"/>
<path d="M1362.53 34.5859L1395.28 34.5859L1395.28 0.820065L1362.53 0.820062L1362.53 34.5859Z" fill="#1c1f21"/>
<path d="M1362.53 82.6533L1395.28 82.6533L1395.28 48.8874L1362.53 48.8874L1362.53 82.6533Z" fill="#1c1f21"/>
<path d="M1362.7 130.482L1395.12 130.482L1395.12 97.1242L1362.7 97.1242L1362.7 130.482Z" fill="#1c1f21"/>
<path d="M1362.7 178.413L1395.12 178.413L1395.12 145.055L1362.7 145.055L1362.7 178.413Z" fill="#1c1f21"/>
<path d="M1362.6 226.548L1395.22 226.548L1395.22 192.986L1362.6 192.986L1362.6 226.548Z" fill="#1c1f21"/>
<path d="M1362.7 274.479L1395.12 274.479L1395.12 241.121L1362.7 241.121L1362.7 274.479Z" fill="#1c1f21"/>
<path d="M1362.6 322.648L1395.22 322.648L1395.22 289.086L1362.6 289.086L1362.6 322.648Z" fill="#1c1f21"/>
<path d="M1362.6 370.682L1395.22 370.682L1395.22 337.12L1362.6 337.12L1362.6 370.682Z" fill="#1c1f21"/>
<path d="M1362.53 418.715L1395.28 418.715L1395.28 385.051L1362.53 385.051L1362.53 418.715Z" fill="#1c1f21"/>
<path d="M1362.53 466.748L1395.28 466.748L1395.28 432.982L1362.53 432.982L1362.53 466.748Z" fill="#FF7445"/>
<path d="M1362.53 514.815L1395.28 514.815L1395.28 481.05L1362.53 481.05L1362.53 514.815Z" fill="#1c1f21"/>
<path d="M1362.36 562.95L1395.48 562.95L1395.48 528.879L1362.36 528.879L1362.36 562.95Z" fill="#1c1f21"/>
<path d="M1362.53 610.779L1395.28 610.779L1395.28 577.115L1362.53 577.115L1362.53 610.779Z" fill="#1c1f21"/>
<path d="M1362.27 659.017L1395.58 659.017L1395.58 624.843L1362.27 624.843L1362.27 659.017Z" fill="#1c1f21"/>
<path d="M1362.03 707.287L1395.78 707.287L1395.78 672.57L1362.03 672.57L1362.03 707.287Z" fill="#1c1f21"/>
<path d="M1315.91 34.4834L1348.53 34.4834L1348.53 0.921333L1315.91 0.92133L1315.91 34.4834Z" fill="#1c1f21"/>
<path d="M1318.42 79.9355L1346.05 79.9355L1346.05 51.5029L1318.42 51.5029L1318.42 79.9355Z" fill="#1c1f21"/>
<path d="M1315.84 130.584L1348.63 130.584L1348.63 96.92L1315.84 96.92L1315.84 130.584Z" fill="#1c1f21"/>
<path d="M1316.01 178.413L1348.43 178.413L1348.43 145.055L1316.01 145.055L1316.01 178.413Z" fill="#1c1f21"/>
<path d="M1315.84 226.65L1348.63 226.65L1348.63 192.885L1315.84 192.885L1315.84 226.65Z" fill="#1c1f21"/>
<path d="M1315.84 274.718L1348.63 274.718L1348.63 240.952L1315.84 240.952L1315.84 274.718Z" fill="#1c1f21"/>
<path d="M1315.84 322.75L1348.63 322.75L1348.63 288.984L1315.84 288.984L1315.84 322.75Z" fill="#1c1f21"/>
<path d="M1315.91 370.682L1348.53 370.682L1348.53 337.12L1315.91 337.12L1315.91 370.682Z" fill="#FF7445"/>
<path d="M1315.84 418.715L1348.63 418.715L1348.63 385.051L1315.84 385.051L1315.84 418.715Z" fill="#1c1f21"/>
<path d="M1315.68 466.986L1348.79 466.986L1348.79 432.915L1315.68 432.915L1315.68 466.986Z" fill="#1c1f21"/>
<path d="M1315.84 514.815L1348.63 514.815L1348.63 481.05L1315.84 481.05L1315.84 514.815Z" fill="#1c1f21"/>
<path d="M1315.68 562.95L1348.79 562.95L1348.79 528.879L1315.68 528.879L1315.68 562.95Z" fill="#1c1f21"/>
<path d="M1315.68 610.983L1348.79 610.983L1348.79 576.912L1315.68 576.912L1315.68 610.983Z" fill="#1c1f21"/>
<path d="M1315.68 659.017L1348.79 659.017L1348.79 624.945L1315.68 624.945L1315.68 659.017Z" fill="#1c1f21"/>
<path d="M1315.41 707.287L1349.09 707.287L1349.09 672.57L1315.41 672.57L1315.41 707.287Z" fill="#1c1f21"/>
<path d="M1269.35 34.3818L1301.78 34.3818L1301.78 1.02359L1269.35 1.02358L1269.35 34.3818Z" fill="#1c1f21"/>
<path d="M1272.79 78.8818L1298.41 78.8818L1298.41 52.5214L1272.79 52.5214L1272.79 78.8818Z" fill="#1c1f21"/>
<path d="M1269.62 130.177L1301.48 130.177L1301.48 97.362L1269.62 97.362L1269.62 130.177Z" fill="#1c1f21"/>
<path d="M1269.52 178.312L1301.58 178.312L1301.58 145.293L1269.52 145.293L1269.52 178.312Z" fill="#1c1f21"/>
<path d="M1269.29 226.548L1301.84 226.548L1301.84 192.986L1269.29 192.986L1269.29 226.548Z" fill="#1c1f21"/>
<path d="M1268.92 275.023L1302.24 275.023L1302.24 240.748L1268.92 240.748L1268.92 275.023Z" fill="#1c1f21"/>
<path d="M1269.19 322.75L1301.94 322.75L1301.94 288.984L1269.19 288.984L1269.19 322.75Z" fill="#1c1f21"/>
<path d="M1269.35 370.58L1301.78 370.58L1301.78 337.222L1269.35 337.222L1269.35 370.58Z" fill="#1c1f21"/>
<path d="M1269.19 418.715L1301.94 418.715L1301.94 385.051L1269.19 385.051L1269.19 418.715Z" fill="#1c1f21"/>
<path d="M1269.29 466.646L1301.84 466.646L1301.84 433.084L1269.29 433.084L1269.29 466.646Z" fill="#1c1f21"/>
<path d="M1269.35 514.611L1301.78 514.611L1301.78 481.253L1269.35 481.253L1269.35 514.611Z" fill="#1c1f21"/>
<path d="M1269.29 562.746L1301.84 562.746L1301.84 529.184L1269.29 529.184L1269.29 562.746Z" fill="#1c1f21"/>
<path d="M1268.96 610.983L1302.14 610.983L1302.14 576.912L1268.96 576.912L1268.96 610.983Z" fill="#1c1f21"/>
<path d="M1268.92 659.017L1302.24 659.017L1302.24 624.843L1268.92 624.843L1268.92 659.017Z" fill="#1c1f21"/>
<path d="M1268.73 707.287L1302.4 707.287L1302.4 672.57L1268.73 672.57L1268.73 707.287Z" fill="#1c1f21"/>
<path d="M1222.57 34.4834L1255.19 34.4834L1255.19 0.921333L1222.57 0.92133L1222.57 34.4834Z" fill="#1c1f21"/>
<path d="M1222.89 82.2109L1254.89 82.2109L1254.89 49.2944L1222.89 49.2944L1222.89 82.2109Z" fill="#1c1f21"/>
<path d="M1222.89 130.278L1254.89 130.278L1254.89 97.2598L1222.89 97.2598L1222.89 130.278Z" fill="#1c1f21"/>
<path d="M1222.66 178.413L1255.09 178.413L1255.09 145.055L1222.66 145.055L1222.66 178.413Z" fill="#1c1f21"/>
<path d="M1222.57 226.548L1255.19 226.548L1255.19 192.986L1222.57 192.986L1222.57 226.548Z" fill="#1c1f21"/>
<path d="M1222.47 274.718L1255.29 274.718L1255.29 240.952L1222.47 240.952L1222.47 274.718Z" fill="#1c1f21"/>
<path d="M1222.57 322.648L1255.19 322.648L1255.19 289.086L1222.57 289.086L1222.57 322.648Z" fill="#1c1f21"/>
<path d="M1222.99 370.274L1254.86 370.274L1254.86 337.46L1222.99 337.46L1222.99 370.274Z" fill="#1c1f21"/>
<path d="M1222.99 418.308L1254.86 418.308L1254.86 385.493L1222.99 385.493L1222.99 418.308Z" fill="#1c1f21"/>
<path d="M1224.94 464.269L1252.81 464.269L1252.81 435.598L1224.94 435.598L1224.94 464.269Z" fill="#1c1f21"/>
<path d="M1222.89 514.373L1254.89 514.373L1254.89 481.456L1222.89 481.456L1222.89 514.373Z" fill="#1c1f21"/>
<path d="M1222.47 562.849L1255.29 562.849L1255.29 529.083L1222.47 529.083L1222.47 562.849Z" fill="#1c1f21"/>
<path d="M1222.23 611.085L1255.55 611.085L1255.55 576.81L1222.23 576.81L1222.23 611.085Z" fill="#1c1f21"/>
<path d="M1222.23 659.017L1255.55 659.017L1255.55 624.843L1222.23 624.843L1222.23 659.017Z" fill="#1c1f21"/>
<path d="M1221.97 707.39L1255.85 707.39L1255.85 672.571L1221.97 672.571L1221.97 707.39Z" fill="#1c1f21"/>
<path d="M1178.39 32.0039L1206.02 32.0039L1206.02 3.5713L1178.39 3.57129L1178.39 32.0039Z" fill="#FF7445"/>
<path d="M1175.55 82.8564L1208.86 82.8564L1208.86 48.581L1175.55 48.581L1175.55 82.8564Z" fill="#1c1f21"/>
<path d="M1176.27 130.177L1208.13 130.177L1208.13 97.362L1176.27 97.362L1176.27 130.177Z" fill="#1c1f21"/>
<path d="M1175.98 178.413L1208.4 178.413L1208.4 145.055L1175.98 145.055L1175.98 178.413Z" fill="#FF7445"/>
<path d="M1175.98 226.446L1208.4 226.446L1208.4 193.088L1175.98 193.088L1175.98 226.446Z" fill="#1c1f21"/>
<path d="M1175.98 274.479L1208.4 274.479L1208.4 241.121L1175.98 241.121L1175.98 274.479Z" fill="#1c1f21"/>
<path d="M1179.61 318.878L1204.87 318.878L1204.87 292.823L1179.61 292.823L1179.61 318.878Z" fill="#1c1f21"/>
<path d="M1176.47 370.07L1207.94 370.07L1207.94 337.663L1176.47 337.663L1176.47 370.07Z" fill="#1c1f21"/>
<path d="M1176.27 418.308L1208.13 418.308L1208.13 385.493L1176.27 385.493L1176.27 418.308Z" fill="#1c1f21"/>
<path d="M1175.98 466.544L1208.4 466.544L1208.4 433.186L1175.98 433.186L1175.98 466.544Z" fill="#1c1f21"/>
<path d="M1177 513.559L1207.44 513.559L1207.44 482.306L1177 482.306L1177 513.559Z" fill="#1c1f21"/>
<path d="M1177 561.592L1207.44 561.592L1207.44 530.34L1177 530.34L1177 561.592Z" fill="#1c1f21"/>
<path d="M1175.85 610.779L1208.6 610.779L1208.6 577.115L1175.85 577.115L1175.85 610.779Z" fill="#1c1f21"/>
<path d="M1175.55 659.017L1208.86 659.017L1208.86 624.843L1175.55 624.843L1175.55 659.017Z" fill="#1c1f21"/>
<path d="M1175.28 707.39L1209.16 707.39L1209.16 672.571L1175.28 672.571L1175.28 707.39Z" fill="#1c1f21"/>
<path d="M1129.98 33.7705L1161.08 33.7705L1161.08 1.66917L1129.98 1.66916L1129.98 33.7705Z" fill="#1c1f21"/>
<path d="M1128.6 83.1621L1162.47 83.1621L1162.47 48.3432L1128.6 48.3432L1128.6 83.1621Z" fill="#1c1f21"/>
<path d="M1132.26 127.459L1158.81 127.459L1158.81 100.147L1132.26 100.147L1132.26 127.459Z" fill="#1c1f21"/>
<path d="M1129.32 178.413L1161.74 178.413L1161.74 145.055L1129.32 145.055L1129.32 178.413Z" fill="#1c1f21"/>
<path d="M1129.16 226.65L1161.91 226.65L1161.91 192.885L1129.16 192.885L1129.16 226.65Z" fill="#1c1f21"/>
<path d="M1135.59 268.127L1155.54 268.127L1155.54 247.609L1135.59 247.609L1135.59 268.127Z" fill="#1c1f21"/>
<path d="M1133.75 317.961L1157.35 317.961L1157.35 293.673L1133.75 293.673L1133.75 317.961Z" fill="#1c1f21"/>
<path d="M1129.59 370.274L1161.45 370.274L1161.45 337.46L1129.59 337.46L1129.59 370.274Z" fill="#1c1f21"/>
<path d="M1129.59 418.308L1161.45 418.308L1161.45 385.493L1129.59 385.493L1129.59 418.308Z" fill="#1c1f21"/>
<path d="M1129.22 466.646L1161.85 466.646L1161.85 433.084L1129.22 433.084L1129.22 466.646Z" fill="#1c1f21"/>
<path d="M1129.22 514.713L1161.85 514.713L1161.85 481.151L1129.22 481.151L1129.22 514.713Z" fill="#1c1f21"/>
<path d="M1129.16 562.849L1161.91 562.849L1161.91 529.083L1129.16 529.083L1129.16 562.849Z" fill="#1c1f21"/>
<path d="M1129.59 610.372L1161.45 610.372L1161.45 577.557L1129.59 577.557L1129.59 610.372Z" fill="#1c1f21"/>
<path d="M1129.16 658.812L1161.91 658.812L1161.91 625.149L1129.16 625.149L1129.16 658.812Z" fill="#1c1f21"/>
<path d="M1128.89 707.083L1162.21 707.083L1162.21 672.808L1128.89 672.808L1128.89 707.083Z" fill="#1c1f21"/>
<path d="M1083.66 33.3633L1114.04 33.3633L1114.04 2.11118L1083.66 2.11118L1083.66 33.3633Z" fill="#1c1f21"/>
<path d="M1082.47 82.6533L1115.26 82.6533L1115.26 48.8874L1082.47 48.8874L1082.47 82.6533Z" fill="#1c1f21"/>
<path d="M1082.3 130.788L1115.42 130.788L1115.42 96.7165L1082.3 96.7165L1082.3 130.788Z" fill="#1c1f21"/>
<path d="M1088.88 172.061L1108.82 172.061L1108.82 151.543L1088.88 151.543L1088.88 172.061Z" fill="#1c1f21"/>
<path d="M1085.7 223.321L1112.09 223.321L1112.09 196.213L1085.7 196.213L1085.7 223.321Z" fill="#1c1f21"/>
<path d="M1092.74 264.187L1104.99 264.187L1104.99 251.584L1092.74 251.584L1092.74 264.187Z" fill="#1c1f21"/>
<path d="M1084.42 320.78L1113.34 320.78L1113.34 290.989L1084.42 290.989L1084.42 320.78Z" fill="#1c1f21"/>
<path d="M1082.63 370.58L1115.06 370.58L1115.06 337.222L1082.63 337.222L1082.63 370.58Z" fill="#1c1f21"/>
<path d="M1082.63 418.511L1115.06 418.511L1115.06 385.153L1082.63 385.153L1082.63 418.511Z" fill="#1c1f21"/>
<path d="M1082.63 466.544L1115.06 466.544L1115.06 433.186L1082.63 433.186L1082.63 466.544Z" fill="#1c1f21"/>
<path d="M1082.3 515.019L1115.42 515.019L1115.42 480.845L1082.3 480.845L1082.3 515.019Z" fill="#1c1f21"/>
<path d="M1082.2 563.052L1115.52 563.052L1115.52 528.776L1082.2 528.776L1082.2 563.052Z" fill="#1c1f21"/>
<path d="M1082.3 610.983L1115.42 610.983L1115.42 576.912L1082.3 576.912L1082.3 610.983Z" fill="#1c1f21"/>
<path d="M1082.83 658.404L1114.89 658.404L1114.89 625.488L1082.83 625.488L1082.83 658.404Z" fill="#1c1f21"/>
<path d="M1082.3 706.981L1115.42 706.981L1115.42 672.91L1082.3 672.91L1082.3 706.981Z" fill="#1c1f21"/>
<path d="M1035.91 34.4834L1068.47 34.4834L1068.47 0.921333L1035.91 0.92133L1035.91 34.4834Z" fill="#1c1f21"/>
<path d="M1037.04 81.3955L1067.41 81.3955L1067.41 50.1434L1037.04 50.1434L1037.04 81.3955Z" fill="#1c1f21"/>
<path d="M1038.98 127.357L1065.37 127.357L1065.37 100.25L1038.98 100.25L1038.98 127.357Z" fill="#1c1f21"/>
<path d="M1037.63 176.749L1066.75 176.749L1066.75 146.856L1037.63 146.856L1037.63 176.749Z" fill="#1c1f21"/>
<path d="M1042.35 219.891L1061.96 219.891L1061.96 199.781L1042.35 199.781L1042.35 219.891Z" fill="#1c1f21"/>
<path d="M1035.81 274.718L1068.57 274.718L1068.57 240.952L1035.81 240.952L1035.81 274.718Z" fill="#1c1f21"/>
<path d="M1035.98 322.547L1068.4 322.547L1068.4 289.189L1035.98 289.189L1035.98 322.547Z" fill="#1c1f21"/>
<path d="M1035.98 370.58L1068.4 370.58L1068.4 337.222L1035.98 337.222L1035.98 370.58Z" fill="#1c1f21"/>
<path d="M1035.98 418.511L1068.4 418.511L1068.4 385.153L1035.98 385.153L1035.98 418.511Z" fill="#1c1f21"/>
<path d="M1035.98 466.544L1068.4 466.544L1068.4 433.186L1035.98 433.186L1035.98 466.544Z" fill="#1c1f21"/>
<path d="M1035.81 514.815L1068.57 514.815L1068.57 481.05L1035.81 481.05L1035.81 514.815Z" fill="#1c1f21"/>
<path d="M1035.58 562.95L1068.77 562.95L1068.77 528.879L1035.58 528.879L1035.58 562.95Z" fill="#1c1f21"/>
<path d="M1035.55 611.085L1068.87 611.085L1068.87 576.81L1035.55 576.81L1035.55 611.085Z" fill="#1c1f21"/>
<path d="M1035.58 659.017L1068.77 659.017L1068.77 624.945L1035.58 624.945L1035.58 659.017Z" fill="#1c1f21"/>
<path d="M1036.24 706.336L1068.11 706.336L1068.11 673.521L1036.24 673.521L1036.24 706.336Z" fill="#1c1f21"/>
<path d="M988.961 34.8232L1022.08 34.8232L1022.08 0.64975L988.961 0.649747L988.961 34.8232Z" fill="#1c1f21"/>
<path d="M991.041 80.6484L1020 80.6484L1020 50.857L991.041 50.857L991.041 80.6484Z" fill="#1c1f21"/>
<path d="M995.335 124.231L1015.71 124.231L1015.71 103.272L995.335 103.272L995.335 124.231Z" fill="#1c1f21"/>
<path d="M1000.19 167.271L1010.82 167.271L1010.82 156.333L1000.19 156.333L1000.19 167.271Z" fill="#1c1f21"/>
<path d="M994.409 221.249L1016.6 221.249L1016.6 198.421L994.409 198.421L994.409 221.249Z" fill="#1c1f21"/>
<path d="M997.811 265.749L1013.2 265.749L1013.2 249.919L997.811 249.919L997.811 265.749Z" fill="#1c1f21"/>
<path d="M989.192 322.648L1021.81 322.648L1021.81 289.086L989.192 289.086L989.192 322.648Z" fill="#1c1f21"/>
<path d="M989.192 370.682L1021.81 370.682L1021.81 337.12L989.192 337.12L989.192 370.682Z" fill="#1c1f21"/>
<path d="M989.192 418.613L1021.81 418.613L1021.81 385.153L989.192 385.153L989.192 418.613Z" fill="#1c1f21"/>
<path d="M989.291 466.544L1021.71 466.544L1021.71 433.186L989.291 433.186L989.291 466.544Z" fill="#1c1f21"/>
<path d="M989.291 514.611L1021.71 514.611L1021.71 481.253L989.291 481.253L989.291 514.611Z" fill="#1c1f21"/>
<path d="M989.094 562.849L1021.91 562.849L1021.91 529.083L989.094 529.083L989.094 562.849Z" fill="#1c1f21"/>
<path d="M989.094 610.779L1021.91 610.779L1021.91 577.115L989.094 577.115L989.094 610.779Z" fill="#1c1f21"/>
<path d="M988.63 659.254L1022.38 659.254L1022.38 624.673L988.63 624.673L988.63 659.254Z" fill="#1c1f21"/>
<path d="M989.094 706.88L1021.91 706.88L1021.91 673.114L989.094 673.114L989.094 706.88Z" fill="#1c1f21"/>
<path d="M951.517 25.21L966.145 25.21L966.145 10.1954L951.517 10.1954L951.517 25.21Z" fill="#1c1f21"/>
<path d="M944.75 80.2412L972.947 80.2412L972.947 51.2651L944.75 51.2651L944.75 80.2412Z" fill="#1c1f21"/>
<path d="M946.204 126.712L971.463 126.712L971.463 100.759L946.204 100.759L946.204 126.712Z" fill="#1c1f21"/>
<path d="M944.288 176.749L973.41 176.749L973.41 146.856L944.288 146.856L944.288 176.749Z" fill="#FF7445"/>
<path d="M949.008 219.891L968.621 219.891L968.621 199.781L949.008 199.781L949.008 219.891Z" fill="#1c1f21"/>
<path d="M953.534 263.337L964.133 263.337L964.133 252.399L953.534 252.399L953.534 263.337Z" fill="#1c1f21"/>
<path d="M942.803 322.309L974.863 322.309L974.863 289.392L942.803 289.392L942.803 322.309Z" fill="#1c1f21"/>
<path d="M942.571 370.682L975.127 370.682L975.127 337.12L942.571 337.12L942.571 370.682Z" fill="#1c1f21"/>
<path d="M942.471 418.715L975.225 418.715L975.225 385.051L942.471 385.051L942.471 418.715Z" fill="#1c1f21"/>
<path d="M942.603 466.544L975.027 466.544L975.027 433.186L942.603 433.186L942.603 466.544Z" fill="#1c1f21"/>
<path d="M942.603 514.611L975.027 514.611L975.027 481.253L942.603 481.253L942.603 514.611Z" fill="#1c1f21"/>
<path d="M943.365 561.897L974.303 561.897L974.303 530L943.365 530L943.365 561.897Z" fill="#1c1f21"/>
<path d="M942.009 611.323L975.688 611.323L975.688 576.606L942.009 576.606L942.009 611.323Z" fill="#1c1f21"/>
<path d="M941.812 659.458L975.887 659.458L975.887 624.435L941.812 624.435L941.812 659.458Z" fill="#1c1f21"/>
<path d="M941.812 707.491L975.887 707.491L975.887 672.468L941.812 672.468L941.812 707.491Z" fill="#1c1f21"/>
<path d="M903.675 26.4668L920.68 26.4668L920.68 8.97238L903.675 8.97238L903.675 26.4668Z" fill="#1c1f21"/>
<path d="M902.883 75.2471L921.373 75.2471L921.373 56.292L902.883 56.292L902.883 75.2471Z" fill="#1c1f21"/>
<path d="M897.435 128.919L926.92 128.919L926.92 98.584L897.435 98.584L897.435 128.919Z" fill="#1c1f21"/>
<path d="M899.712 174.541L924.641 174.541L924.641 148.996L899.712 148.996L899.712 174.541Z" fill="#1c1f21"/>
<path d="M899.712 222.607L924.641 222.607L924.641 196.96L899.712 196.96L899.712 222.607Z" fill="#1c1f21"/>
<path d="M906.383 263.745L917.939 263.745L917.939 251.856L906.383 251.856L906.383 263.745Z" fill="#1c1f21"/>
<path d="M901.827 316.5L922.496 316.5L922.496 295.235L901.827 295.235L901.827 316.5Z" fill="#1c1f21"/>
<path d="M896.675 369.73L927.613 369.73L927.613 337.935L896.675 337.935L896.675 369.73Z" fill="#1c1f21"/>
<path d="M895.949 418.511L928.373 418.511L928.373 385.153L895.949 385.153L895.949 418.511Z" fill="#1c1f21"/>
<path d="M895.851 466.646L928.473 466.646L928.473 433.084L895.851 433.084L895.851 466.646Z" fill="#1c1f21"/>
<path d="M899.712 510.738L924.641 510.738L924.641 485.091L899.712 485.091L899.712 510.738Z" fill="#1c1f21"/>
<path d="M895.289 563.256L929.033 563.256L929.033 528.641L895.289 528.641L895.289 563.256Z" fill="#1c1f21"/>
<path d="M895.155 611.527L929.197 611.527L929.197 576.505L895.155 576.505L895.155 611.527Z" fill="#1c1f21"/>
<path d="M895.19 659.356L929.066 659.356L929.066 624.538L895.19 624.538L895.19 659.356Z" fill="#1c1f21"/>
<path d="M895.519 707.083L928.834 707.083L928.834 672.808L895.519 672.808L895.519 707.083Z" fill="#1c1f21"/>
<path d="M859.2 24.1914L871.812 24.1914L871.813 11.2829L859.2 11.2829L859.2 24.1914Z" fill="#1c1f21"/>
<path d="M859.563 71.918L871.449 71.918L871.449 59.621L859.563 59.621L859.563 71.918Z" fill="#1c1f21"/>
<path d="M858.309 121.106L872.605 121.106L872.605 106.398L858.309 106.398L858.309 121.106Z" fill="#1c1f21"/>
<path d="M852.86 174.778L878.119 174.778L878.119 148.825L852.86 148.825L852.86 174.778Z" fill="#1c1f21"/>
<path d="M850.021 225.733L880.959 225.733L880.959 193.938L850.021 193.938L850.021 225.733Z" fill="#1c1f21"/>
<path d="M853.652 270.029L877.26 270.029L877.26 245.639L853.652 245.639L853.652 270.029Z" fill="#1c1f21"/>
<path d="M851.209 320.542L879.77 320.542L879.77 291.158L851.209 291.158L851.209 320.542Z" fill="#1c1f21"/>
<path d="M856.625 362.971L874.389 362.971L874.389 344.729L856.625 344.729L856.625 362.971Z" fill="#1c1f21"/>
<path d="M852.199 415.59L878.746 415.59L878.746 388.176L852.199 388.176L852.199 415.59Z" fill="#1c1f21"/>
<path d="M849.461 466.34L881.521 466.34L881.521 433.423L849.461 433.423L849.461 466.34Z" fill="#1c1f21"/>
<path d="M851.045 512.812L879.969 512.812L879.969 483.02L851.045 483.02L851.045 512.812Z" fill="#1c1f21"/>
<path d="M848.567 563.357L882.443 563.357L882.443 528.538L848.567 528.538L848.567 563.357Z" fill="#1c1f21"/>
<path d="M849.557 610.372L881.42 610.372L881.42 577.557L849.557 577.557L849.557 610.372Z" fill="#1c1f21"/>
<path d="M849.163 658.711L881.785 658.711L881.785 625.251L849.163 625.251L849.163 658.711Z" fill="#1c1f21"/>
<path d="M854.446 701.343L876.568 701.343L876.568 678.515L854.446 678.515L854.446 701.343Z" fill="#1c1f21"/>
<path d="M816.705 19.9111L820.898 19.9111L820.898 15.5291L816.705 15.5291L816.705 19.9111Z" fill="#1c1f21"/>
<path d="M816.475 68.0459L821.098 68.0459L821.098 63.3581L816.475 63.3581L816.475 68.0459Z" fill="#1c1f21"/>
<path d="M816.143 116.521L821.459 116.521L821.459 110.983L816.143 110.983L816.143 116.521Z" fill="#1c1f21"/>
<path d="M816.475 164.146L821.098 164.146L821.098 159.459L816.475 159.459L816.475 164.146Z" fill="#1c1f21"/>
<path d="M804.224 224.782L833.346 224.782L833.346 194.889L804.224 194.889L804.224 224.782Z" fill="#1c1f21"/>
<path d="M804.983 272.102L832.652 272.102L832.652 243.669L804.983 243.669L804.983 272.102Z" fill="#1c1f21"/>
<path d="M809.209 315.753L828.393 315.753L828.393 295.949L809.209 295.949L809.209 315.753Z" fill="#1c1f21"/>
<path d="M809.539 363.378L828.029 363.378L828.029 344.321L809.539 344.321L809.539 363.378Z" fill="#1c1f21"/>
<path d="M813.667 407.165L823.936 407.165L823.936 396.634L813.667 396.634L813.667 407.165Z" fill="#1c1f21"/>
<path d="M806.503 462.502L831.068 462.502L831.068 437.296L806.503 437.296L806.503 462.502Z" fill="#1c1f21"/>
<path d="M806.37 510.738L831.299 510.738L831.299 485.091L806.37 485.091L806.37 510.738Z" fill="#1c1f21"/>
<path d="M802.605 562.645L835.029 562.645L835.029 529.286L802.605 529.286L802.605 562.645Z" fill="#1c1f21"/>
<path d="M803.629 609.624L834.006 609.624L834.006 578.372L803.629 578.372L803.629 609.624Z" fill="#1c1f21"/>
<path d="M803.069 658.1L834.568 658.1L834.568 625.794L803.069 625.794L803.069 658.1Z" fill="#1c1f21"/>
<path d="M803.333 705.929L834.271 705.929L834.271 674.031L803.333 674.031L803.333 705.929Z" fill="#1c1f21"/>
<path d="M768.631 21.2695L775.631 21.2695L775.631 14.1698L768.631 14.1698L768.631 21.2695Z" fill="#1c1f21"/>
<path d="M769.489 68.4541L774.805 68.4541L774.805 63.0529L769.489 63.0529L769.489 68.4541Z" fill="#1c1f21"/>
<path d="M769.852 116.079L774.408 116.079L774.408 111.391L769.852 111.391L769.852 116.079Z" fill="#1c1f21"/>
<path d="M769.852 164.146L774.408 164.146L774.408 159.459L769.852 159.459L769.852 164.146Z" fill="#1c1f21"/>
<path d="M769.655 212.383L774.607 212.383L774.607 207.287L769.655 207.287L769.655 212.383Z" fill="#1c1f21"/>
<path d="M760.476 269.792L783.787 269.792L783.787 245.809L760.476 245.809L760.476 269.792Z" fill="#1c1f21"/>
<path d="M761.432 316.908L782.861 316.908L782.861 294.828L761.432 294.828L761.432 316.908Z" fill="#1c1f21"/>
<path d="M769.852 356.211L774.408 356.211L774.408 351.523L769.852 351.523L769.852 356.211Z" fill="#1c1f21"/>
<path d="M766.352 407.776L777.908 407.776L777.908 395.989L766.352 395.989L766.352 407.776Z" fill="#1c1f21"/>
<path d="M766.815 455.402L777.447 455.402L777.447 444.464L766.815 444.464L766.815 455.402Z" fill="#1c1f21"/>
<path d="M757.603 512.913L786.725 512.913L786.725 482.884L757.603 482.884L757.603 512.913Z" fill="#1c1f21"/>
<path d="M757.141 561.388L787.188 561.388L787.188 530.543L757.141 530.543L757.141 561.388Z" fill="#1c1f21"/>
<path d="M766.352 599.943L777.908 599.943L777.908 588.054L766.352 588.054L766.352 599.943Z" fill="#1c1f21"/>
<path d="M758.066 656.435L786.23 656.435L786.23 627.458L758.066 627.458L758.066 656.435Z" fill="#1c1f21"/>
<path d="M762.885 699.475L781.408 699.475L781.408 680.418L762.885 680.418L762.885 699.475Z" fill="#1c1f21"/>
<path d="M722.01 21.2695L728.943 21.2695L728.943 14.1698L722.01 14.1698L722.01 21.2695Z" fill="#1c1f21"/>
<path d="M723.363 67.9443L727.557 67.9443L727.557 63.5623L723.363 63.5623L723.363 67.9443Z" fill="#1c1f21"/>
<path d="M724.188 115.06L726.764 115.06L726.764 112.444L724.188 112.444L724.188 115.06Z" fill="#1c1f21"/>
<path d="M723.363 163.942L727.557 163.942L727.557 159.662L723.363 159.662L723.363 163.942Z" fill="#1c1f21"/>
<path d="M722.34 212.994L728.58 212.994L728.58 206.642L722.34 206.642L722.34 212.994Z" fill="#1c1f21"/>
<path d="M716.363 267.21L734.49 267.21L734.49 248.561L716.363 248.561L716.363 267.21Z" fill="#1c1f21"/>
<path d="M711.146 320.542L739.707 320.542L739.707 291.158L711.146 291.158L711.146 320.542Z" fill="#1c1f21"/>
<path d="M715.438 364.126L735.447 364.126L735.447 343.608L715.438 343.608L715.438 364.126Z" fill="#1c1f21"/>
<path d="M718.476 409.033L732.41 409.033L732.41 394.766L718.476 394.766L718.476 409.033Z" fill="#1c1f21"/>
<path d="M713.26 462.399L737.627 462.399L737.627 437.398L713.26 437.398L713.26 462.399Z" fill="#1c1f21"/>
<path d="M718.706 504.896L732.211 504.896L732.211 490.934L718.706 490.934L718.706 504.896Z" fill="#1c1f21"/>
<path d="M711.014 560.878L739.938 560.878L739.938 531.087L711.014 531.087L711.014 560.878Z" fill="#1c1f21"/>
<path d="M719.533 600.045L731.42 600.045L731.42 587.85L719.533 587.85L719.533 600.045Z" fill="#1c1f21"/>
<path d="M712.829 654.974L738.088 654.974L738.088 629.021L712.829 629.021L712.829 654.974Z" fill="#1c1f21"/>
<path d="M712.269 703.517L738.65 703.517L738.65 676.409L712.269 676.409L712.269 703.517Z" fill="#1c1f21"/>
<path d="M675.519 21.168L682.09 21.168L682.09 14.408L675.519 14.408L675.519 21.168Z" fill="#1c1f21"/>
<path d="M675.849 68.793L681.727 68.793L681.727 62.7464L675.849 62.7464L675.849 68.793Z" fill="#1c1f21"/>
<path d="M676.674 115.875L680.867 115.875L680.867 111.595L676.674 111.595L676.674 115.875Z" fill="#1c1f21"/>
<path d="M676.311 164.35L681.264 164.35L681.264 159.254L676.311 159.254L676.311 164.35Z" fill="#1c1f21"/>
<path d="M675.65 212.994L681.891 212.994L681.891 206.642L675.65 206.642L675.65 212.994Z" fill="#1c1f21"/>
<path d="M675.849 260.857L681.727 260.857L681.727 254.811L675.849 254.811L675.849 260.857Z" fill="#1c1f21"/>
<path d="M675.287 309.4L682.287 309.4L682.287 302.301L675.287 302.301L675.287 309.4Z" fill="#1c1f21"/>
<path d="M674.034 358.793L683.543 358.793L683.543 349.01L674.034 349.01L674.034 358.793Z" fill="#1c1f21"/>
<path d="M674.496 406.315L683.113 406.315L683.113 397.449L674.496 397.449L674.496 406.315Z" fill="#1c1f21"/>
<path d="M669.906 459.037L687.67 459.037L687.67 440.795L669.906 440.795L669.906 459.037Z" fill="#1c1f21"/>
<path d="M669.344 507.613L688.197 507.613L688.197 488.217L669.344 488.217L669.344 507.613Z" fill="#1c1f21"/>
<path d="M666.572 558.466L690.939 558.466L690.939 533.464L666.572 533.464L666.572 558.466Z" fill="#1c1f21"/>
<path d="M665.317 607.857L692.26 607.857L692.26 580.138L665.317 580.138L665.317 607.857Z" fill="#1c1f21"/>
<path d="M664.691 656.435L692.889 656.435L692.889 627.458L664.691 627.458L664.691 656.435Z" fill="#1c1f21"/>
<path d="M664.853 704.264L692.721 704.264L692.721 675.593L664.853 675.593L664.853 704.264Z" fill="#1c1f21"/>
<path d="M629.855 20.1143L634.379 20.1143L634.379 15.3246L629.855 15.3246L629.855 20.1143Z" fill="#1c1f21"/>
<path d="M629.855 68.0459L634.379 68.0459L634.379 63.3581L629.855 63.3581L629.855 68.0459Z" fill="#1c1f21"/>
<path d="M629.459 116.521L634.775 116.521L634.775 110.983L629.459 110.983L629.459 116.521Z" fill="#1c1f21"/>
<path d="M625.629 168.494L638.639 168.494L638.639 155.042L625.629 155.042L625.629 168.494Z" fill="#1c1f21"/>
<path d="M626.817 215.305L637.416 215.305L637.416 204.366L626.817 204.366L626.817 215.305Z" fill="#1c1f21"/>
<path d="M623.582 266.564L640.586 266.564L640.586 249.07L623.582 249.07L623.582 266.564Z" fill="#1c1f21"/>
<path d="M622.656 315.549L641.51 315.549L641.51 296.152L622.656 296.152L622.656 315.549Z" fill="#1c1f21"/>
<path d="M622.293 363.888L641.906 363.888L641.906 343.778L622.293 343.778L622.293 363.888Z" fill="#1c1f21"/>
<path d="M621.963 412.362L642.27 412.362L642.27 391.437L621.963 391.437L621.963 412.362Z" fill="#1c1f21"/>
<path d="M623.451 458.833L640.818 458.833L640.818 440.897L623.451 440.897L623.451 458.833Z" fill="#1c1f21"/>
<path d="M620.841 509.481L643.393 509.481L643.393 486.348L620.841 486.348L620.841 509.481Z" fill="#1c1f21"/>
<path d="M626.52 551.706L637.713 551.706L637.713 540.224L626.52 540.224L626.52 551.706Z" fill="#1c1f21"/>
<path d="M619.124 607.349L645.109 607.349L645.109 580.581L619.124 580.581L619.124 607.349Z" fill="#1c1f21"/>
<path d="M619.618 654.771L644.547 654.771L644.547 629.225L619.618 629.225L619.618 654.771Z" fill="#1c1f21"/>
<path d="M619.618 702.804L644.547 702.804L644.547 677.157L619.618 677.157L619.618 702.804Z" fill="#1c1f21"/>
<path d="M583.63 19.6055L587.262 19.6055L587.262 15.8688L583.63 15.8688L583.63 19.6055Z" fill="#1c1f21"/>
<path d="M583.365 67.9443L587.525 67.9443L587.525 63.5623L583.365 63.5623L583.365 67.9443Z" fill="#1c1f21"/>
<path d="M582.374 116.928L588.549 116.928L588.549 110.575L582.374 110.575L582.374 116.928Z" fill="#1c1f21"/>
<path d="M583.796 163.5L587.131 163.5L587.131 160.069L583.796 160.069L583.796 163.5Z" fill="#1c1f21"/>
<path d="M575.079 220.399L595.781 220.399L595.781 199.134L575.079 199.134L575.079 220.399Z" fill="#1c1f21"/>
<path d="M580.692 262.727L590.201 262.727L590.201 252.943L580.692 252.943L580.692 262.727Z" fill="#1c1f21"/>
<path d="M578.94 312.525L591.949 312.525L591.949 299.175L578.94 299.175L578.94 312.525Z" fill="#1c1f21"/>
<path d="M575.079 364.533L595.781 364.533L595.781 343.268L575.079 343.268L575.079 364.533Z" fill="#1c1f21"/>
<path d="M571.181 416.541L599.742 416.541L599.742 387.157L571.181 387.157L571.181 416.541Z" fill="#FF7445"/>
<path d="M574.351 461.347L596.539 461.347L596.539 438.519L574.351 438.519L574.351 461.347Z" fill="#1c1f21"/>
<path d="M575.969 507.613L594.855 507.613L594.855 488.217L575.969 488.217L575.969 507.613Z" fill="#1c1f21"/>
<path d="M573.461 558.262L597.465 558.262L597.465 533.566L573.461 533.566L573.461 558.262Z" fill="#1c1f21"/>
<path d="M572.238 607.553L598.619 607.553L598.619 580.445L572.238 580.445L572.238 607.553Z" fill="#1c1f21"/>
<path d="M573.823 653.921L597.035 653.921L597.035 630.04L573.823 630.04L573.823 653.921Z" fill="#1c1f21"/>
<path d="M574.021 701.75L596.902 701.75L596.902 678.209L574.021 678.209L574.021 701.75Z" fill="#1c1f21"/>
<path d="M537.469 19.0615L540.012 19.0615L540.012 16.3439L537.469 16.3439L537.469 19.0615Z" fill="#1c1f21"/>
<path d="M536.116 68.4531L541.432 68.4531L541.432 63.0519L536.116 63.0519L536.116 68.4531Z" fill="#1c1f21"/>
<path d="M535.884 116.826L541.695 116.826L541.695 110.78L535.884 110.78L535.884 116.826Z" fill="#1c1f21"/>
<path d="M537.272 163.297L540.211 163.297L540.211 160.274L537.272 160.274L537.272 163.297Z" fill="#1c1f21"/>
<path d="M536.481 212.18L541.037 212.18L541.037 207.492L536.481 207.492L536.481 212.18Z" fill="#1c1f21"/>
<path d="M533.442 263.337L544.074 263.337L544.074 252.399L533.442 252.399L533.442 263.337Z" fill="#1c1f21"/>
<path d="M533.839 310.963L543.711 310.963L543.711 300.738L533.839 300.738L533.839 310.963Z" fill="#1c1f21"/>
<path d="M531.229 361.611L546.285 361.611L546.285 346.189L531.229 346.189L531.229 361.611Z" fill="#1c1f21"/>
<path d="M531.098 409.747L546.451 409.747L546.451 394.019L531.098 394.019L531.098 409.747Z" fill="#1c1f21"/>
<path d="M533.045 455.81L544.535 455.81L544.535 443.92L533.045 443.92L533.045 455.81Z" fill="#1c1f21"/>
<path d="M532.452 504.387L545.098 504.387L545.098 491.478L532.452 491.478L532.452 504.387Z" fill="#1c1f21"/>
<path d="M530.437 554.491L547.111 554.491L547.111 537.404L530.437 537.404L530.437 554.491Z" fill="#1c1f21"/>
<path d="M526.74 606.296L550.744 606.296L550.744 581.6L526.74 581.6L526.74 606.296Z" fill="#1c1f21"/>
<path d="M526.509 654.566L551.074 654.566L551.074 629.361L526.509 629.361L526.509 654.566Z" fill="#1c1f21"/>
<path d="M528.258 700.833L549.291 700.833L549.291 679.16L528.258 679.16L528.258 700.833Z" fill="#1c1f21"/>
<path d="M491.113 18.7559L493.127 18.7559L493.127 16.6837L491.113 16.6837L491.113 18.7559Z" fill="#1c1f21"/>
<path d="M490.815 67.0947L493.391 67.0947L493.391 64.3771L490.815 64.3771L490.815 67.0947Z" fill="#1c1f21"/>
<path d="M490.419 115.468L493.721 115.468L493.721 112.037L490.419 112.037L490.419 115.468Z" fill="#1c1f21"/>
<path d="M490.286 163.704L493.918 163.704L493.918 159.832L490.286 159.832L490.286 163.704Z" fill="#1c1f21"/>
<path d="M485.631 216.459L498.607 216.459L498.607 203.109L485.631 203.109L485.631 216.459Z" fill="#1c1f21"/>
<path d="M486.326 263.745L497.883 263.745L497.883 251.856L486.326 251.856L486.326 263.745Z" fill="#1c1f21"/>
<path d="M487.547 310.556L496.66 310.556L496.66 301.18L487.547 301.18L487.547 310.556Z" fill="#1c1f21"/>
<path d="M485.928 360.151L498.244 360.151L498.244 347.549L485.928 347.549L485.928 360.151Z" fill="#1c1f21"/>
<path d="M484.904 409.237L499.201 409.237L499.201 394.528L484.904 394.528L484.904 409.237Z" fill="#1c1f21"/>
<path d="M486.523 455.605L497.684 455.605L497.684 444.158L486.523 444.158L486.523 455.605Z" fill="#1c1f21"/>
<path d="M485.928 504.284L498.244 504.284L498.244 491.681L485.928 491.681L485.928 504.284Z" fill="#1c1f21"/>
<path d="M485.101 553.167L499.035 553.167L499.035 538.798L485.101 538.798L485.101 553.167Z" fill="#1c1f21"/>
<path d="M482.264 604.02L501.877 604.02L501.877 583.909L482.264 583.909L482.264 604.02Z" fill="#1c1f21"/>
<path d="M482.99 651.339L501.117 651.339L501.117 632.69L482.99 632.69L482.99 651.339Z" fill="#1c1f21"/>
<path d="M480.677 701.75L503.559 701.75L503.559 678.209L480.677 678.209L480.677 701.75Z" fill="#1c1f21"/>
<path d="M444.425 18.7559L446.439 18.7559L446.439 16.6837L444.425 16.6837L444.425 18.7559Z" fill="#1c1f21"/>
<path d="M443.137 68.0459L447.76 68.0459L447.76 63.3581L443.137 63.3581L443.137 68.0459Z" fill="#1c1f21"/>
<path d="M443.598 115.671L447.23 115.671L447.23 111.934L443.598 111.934L443.598 115.671Z" fill="#1c1f21"/>
<path d="M443.797 163.5L447.033 163.5L447.033 160.069L443.797 160.069L443.797 163.5Z" fill="#1c1f21"/>
<path d="M444.161 211.126L446.736 211.126L446.736 208.51L444.161 208.51L444.161 211.126Z" fill="#1c1f21"/>
<path d="M443.797 259.499L447.033 259.499L447.033 256.17L443.797 256.17L443.797 259.499Z" fill="#1c1f21"/>
<path d="M435.577 315.957L455.223 315.957L455.223 295.745L435.577 295.745L435.577 315.957Z" fill="#1c1f21"/>
<path d="M442.146 357.229L448.717 357.229L448.717 350.47L442.146 350.47L442.146 357.229Z" fill="#1c1f21"/>
<path d="M441.651 405.807L449.146 405.807L449.146 397.994L441.651 397.994L441.651 405.807Z" fill="#1c1f21"/>
<path d="M440.298 455.198L450.566 455.198L450.566 444.668L440.298 444.668L440.298 455.198Z" fill="#1c1f21"/>
<path d="M439.44 504.081L451.393 504.081L451.393 491.784L439.44 491.784L439.44 504.081Z" fill="#1c1f21"/>
<path d="M436.929 554.729L453.934 554.729L453.934 537.235L436.929 537.235L436.929 554.729Z" fill="#1c1f21"/>
<path d="M436.929 602.763L453.934 602.763L453.934 585.268L436.929 585.268L436.929 602.763Z" fill="#1c1f21"/>
<path d="M435.081 652.562L455.75 652.562L455.75 631.297L435.081 631.297L435.081 652.562Z" fill="#1c1f21"/>
<path d="M397.902 18.5518L399.586 18.5518L399.586 16.8872L397.902 16.8872L397.902 18.5518Z" fill="#1c1f21"/>
<path d="M397.902 66.585L399.586 66.585L399.586 64.9204L397.902 64.9204L397.902 66.585Z" fill="#1c1f21"/>
<path d="M397.473 115.06L400.049 115.06L400.049 112.444L397.473 112.444L397.473 115.06Z" fill="#1c1f21"/>
<path d="M397.473 163.093L400.049 163.093L400.049 160.477L397.473 160.477L397.473 163.093Z" fill="#1c1f21"/>
<path d="M397.308 211.33L400.246 211.33L400.246 208.307L397.308 208.307L397.308 211.33Z" fill="#1c1f21"/>
<path d="M397.473 259.193L400.049 259.193L400.049 256.476L397.473 256.476L397.473 259.193Z" fill="#1c1f21"/>
<path d="M397.077 307.532L400.379 307.532L400.379 304.203L397.077 304.203L397.077 307.532Z" fill="#1c1f21"/>
<path d="M395.625 357.026L401.865 357.026L401.865 350.674L395.625 350.674L395.625 357.026Z" fill="#1c1f21"/>
<path d="M394.468 406.315L403.086 406.315L403.086 397.449L394.468 397.449L394.468 406.315Z" fill="#1c1f21"/>
<path d="M394.468 454.349L403.086 454.349L403.086 445.483L394.468 445.483L394.468 454.349Z" fill="#1c1f21"/>
<path d="M394.798 501.975L402.656 501.975L402.656 493.856L394.798 493.856L394.798 501.975Z" fill="#1c1f21"/>
<path d="M394.798 550.042L402.656 550.042L402.656 541.923L394.798 541.923L394.798 550.042Z" fill="#1c1f21"/>
<path d="M391.926 600.996L405.496 600.996L405.496 587.035L391.926 587.035L391.926 600.996Z" fill="#1c1f21"/>
<path d="M390.044 650.897L407.412 650.897L407.412 633.063L390.044 633.063L390.044 650.897Z" fill="#1c1f21"/>
<path d="M393.809 695.092L403.682 695.092L403.682 684.867L393.809 684.867L393.809 695.092Z" fill="#1c1f21"/>
<path d="M351.215 18.5518L352.898 18.5518L352.898 16.8872L351.215 16.8872L351.215 18.5518Z" fill="#1c1f21"/>
<path d="M351.215 66.585L352.898 66.585L352.898 64.9204L351.215 64.9204L351.215 66.585Z" fill="#1c1f21"/>
<path d="M351.215 114.652L352.898 114.652L352.898 112.988L351.215 112.988L351.215 114.652Z" fill="#1c1f21"/>
<path d="M349.793 164.146L354.35 164.146L354.35 159.458L349.793 159.458L349.793 164.146Z" fill="#1c1f21"/>
<path d="M350.62 211.33L353.559 211.33L353.559 208.307L350.62 208.307L350.62 211.33Z" fill="#1c1f21"/>
<path d="M346.295 263.745L357.852 263.745L357.852 251.856L346.295 251.856L346.295 263.745Z" fill="#1c1f21"/>
<path d="M350.421 307.532L353.756 307.532L353.756 304.203L350.421 304.203L350.421 307.532Z" fill="#1c1f21"/>
<path d="M349.364 356.618L354.746 356.618L354.746 351.081L349.364 351.081L349.364 356.618Z" fill="#1c1f21"/>
<path d="M349.793 404.243L354.35 404.243L354.35 399.555L349.793 399.555L349.793 404.243Z" fill="#1c1f21"/>
<path d="M348.802 453.33L355.373 453.33L355.373 446.57L348.802 446.57L348.802 453.33Z" fill="#1c1f21"/>
<path d="M349.134 500.955L355.012 500.955L355.012 494.908L349.134 494.908L349.134 500.955Z" fill="#1c1f21"/>
<path d="M348.11 550.042L355.969 550.042L355.969 541.923L348.11 541.923L348.11 550.042Z" fill="#1c1f21"/>
<path d="M347.485 598.687L356.697 598.687L356.697 589.209L347.485 589.209L347.485 598.687Z" fill="#1c1f21"/>
<path d="M347.485 646.72L356.697 646.72L356.697 637.242L347.485 637.242L347.485 646.72Z" fill="#1c1f21"/>
<path d="M347.317 694.889L356.826 694.889L356.826 685.105L347.317 685.105L347.317 694.889Z" fill="#1c1f21"/>
<path d="M304.56 18.5518L306.244 18.5518L306.244 16.8872L304.56 16.8872L304.56 18.5518Z" fill="#1c1f21"/>
<path d="M304.56 66.585L306.244 66.585L306.244 64.9204L304.56 64.9204L304.56 66.585Z" fill="#1c1f21"/>
<path d="M304.396 114.856L306.377 114.856L306.377 112.784L304.396 112.784L304.396 114.856Z" fill="#1c1f21"/>
<path d="M304.56 162.686L306.244 162.686L306.244 160.919L304.56 160.919L304.56 162.686Z" fill="#1c1f21"/>
<path d="M304.56 210.616L306.244 210.616L306.244 208.952L304.56 208.952L304.56 210.616Z" fill="#1c1f21"/>
<path d="M303.899 259.397L306.838 259.397L306.838 256.374L303.899 256.374L303.899 259.397Z" fill="#1c1f21"/>
<path d="M303.899 307.328L306.838 307.328L306.838 304.305L303.899 304.305L303.899 307.328Z" fill="#1c1f21"/>
<path d="M303.569 355.769L307.268 355.769L307.268 352.032L303.569 352.032L303.569 355.769Z" fill="#1c1f21"/>
<path d="M303.108 404.243L307.664 404.243L307.664 399.555L303.108 399.555L303.108 404.243Z" fill="#1c1f21"/>
<path d="M303.108 452.277L307.664 452.277L307.664 447.59L303.108 447.59L303.108 452.277Z" fill="#1c1f21"/>
<path d="M303.569 499.801L307.268 499.801L307.268 496.064L303.569 496.064L303.569 499.801Z" fill="#1c1f21"/>
<path d="M301.456 550.042L309.314 550.042L309.314 541.923L301.456 541.923L301.456 550.042Z" fill="#1c1f21"/>
<path d="M301.06 598.381L309.678 598.381L309.678 589.515L301.06 589.515L301.06 598.381Z" fill="#1c1f21"/>
<path d="M301.06 646.414L309.678 646.414L309.678 637.548L301.06 637.548L301.06 646.414Z" fill="#1c1f21"/>
<path d="M300.796 694.685L309.975 694.685L309.975 685.309L300.796 685.309L300.796 694.685Z" fill="#1c1f21"/>
<path d="M257.937 18.5518L259.555 18.5518L259.555 16.8872L257.937 16.8872L257.937 18.5518Z" fill="#1c1f21"/>
<path d="M257.937 66.585L259.555 66.585L259.555 64.9204L257.937 64.9204L257.937 66.585Z" fill="#1c1f21"/>
<path d="M257.74 114.856L259.754 114.856L259.754 112.784L257.74 112.784L257.74 114.856Z" fill="#1c1f21"/>
<path d="M257.409 163.093L259.984 163.093L259.984 160.477L257.409 160.477L257.409 163.093Z" fill="#1c1f21"/>
<path d="M257.046 211.568L260.348 211.568L260.348 208.137L257.046 208.137L257.046 211.568Z" fill="#1c1f21"/>
<path d="M257.74 258.854L259.754 258.854L259.754 256.781L257.74 256.781L257.74 258.854Z" fill="#1c1f21"/>
<path d="M257.409 307.227L259.984 307.227L259.984 304.509L257.409 304.509L257.409 307.227Z" fill="#1c1f21"/>
<path d="M257.276 355.361L260.148 355.361L260.148 352.338L257.276 352.338L257.276 355.361Z" fill="#1c1f21"/>
<path d="M256.385 404.243L261.008 404.243L261.008 399.555L256.385 399.555L256.385 404.243Z" fill="#1c1f21"/>
<path d="M255.395 453.33L262.031 453.33L262.031 446.57L255.395 446.57L255.395 453.33Z" fill="#1c1f21"/>
<path d="M256.385 500.31L261.008 500.31L261.008 495.52L256.385 495.52L256.385 500.31Z" fill="#1c1f21"/>
<path d="M254.57 550.245L262.824 550.245L262.824 541.719L254.57 541.719L254.57 550.245Z" fill="#1c1f21"/>
<path d="M254.57 598.177L262.824 598.177L262.824 589.752L254.57 589.752L254.57 598.177Z" fill="#1c1f21"/>
<path d="M254.174 646.72L263.287 646.72L263.287 637.242L254.174 637.242L254.174 646.72Z" fill="#1c1f21"/>
<path d="M254.174 694.685L263.287 694.685L263.287 685.309L254.174 685.309L254.174 694.685Z" fill="#1c1f21"/>
<path d="M211.218 18.5518L212.836 18.5518L212.836 16.8872L211.218 16.8872L211.218 18.5518Z" fill="#1c1f21"/>
<path d="M211.218 66.585L212.836 66.585L212.836 64.9204L211.218 64.9204L211.218 66.585Z" fill="#1c1f21"/>
<path d="M211.218 114.652L212.836 114.652L212.836 112.988L211.218 112.988L211.218 114.652Z" fill="#1c1f21"/>
<path d="M211.052 162.787L213.066 162.787L213.066 160.817L211.052 160.817L211.052 162.787Z" fill="#1c1f21"/>
<path d="M210.556 211.33L213.494 211.33L213.494 208.307L210.556 208.307L210.556 211.33Z" fill="#1c1f21"/>
<path d="M210.788 259.193L213.363 259.193L213.363 256.476L210.788 256.476L210.788 259.193Z" fill="#1c1f21"/>
<path d="M209.895 308.042L214.154 308.042L214.154 303.66L209.895 303.66L209.895 308.042Z" fill="#1c1f21"/>
<path d="M210.788 355.158L213.363 355.158L213.363 352.543L210.788 352.543L210.788 355.158Z" fill="#1c1f21"/>
<path d="M209.103 404.855L214.98 404.855L214.98 398.911L209.103 398.911L209.103 404.855Z" fill="#1c1f21"/>
<path d="M209.6 452.48L214.52 452.48L214.52 447.385L209.6 447.385L209.6 452.48Z" fill="#1c1f21"/>
<path d="M208.079 501.975L215.971 501.975L215.971 493.856L208.079 493.856L208.079 501.975Z" fill="#1c1f21"/>
<path d="M208.079 550.042L215.971 550.042L215.971 541.923L208.079 541.923L208.079 550.042Z" fill="#1c1f21"/>
<path d="M208.079 598.074L215.971 598.074L215.971 589.955L208.079 589.955L208.079 598.074Z" fill="#1c1f21"/>
<path d="M207.485 646.72L216.598 646.72L216.598 637.242L207.485 637.242L207.485 646.72Z" fill="#1c1f21"/>
<path d="M207.485 694.685L216.598 694.685L216.598 685.309L207.485 685.309L207.485 694.685Z" fill="#1c1f21"/>
<path d="M164.529 18.5518L166.213 18.5518L166.213 16.8872L164.529 16.8872L164.529 18.5518Z" fill="#1c1f21"/>
<path d="M164.529 66.585L166.213 66.585L166.213 64.9204L164.529 64.9204L164.529 66.585Z" fill="#1c1f21"/>
<path d="M164.33 114.856L166.344 114.856L166.344 112.784L164.33 112.784L164.33 114.856Z" fill="#1c1f21"/>
<path d="M164.529 162.686L166.213 162.686L166.213 160.919L164.529 160.919L164.529 162.686Z" fill="#1c1f21"/>
<path d="M164.529 210.616L166.213 210.616L166.213 208.952L164.529 208.952L164.529 210.616Z" fill="#1c1f21"/>
<path d="M164.529 258.649L166.213 258.649L166.213 256.985L164.529 256.985L164.529 258.649Z" fill="#1c1f21"/>
<path d="M163.704 307.532L167.006 307.532L167.006 304.203L163.704 304.203L163.704 307.532Z" fill="#1c1f21"/>
<path d="M163.934 355.361L166.873 355.361L166.873 352.338L163.934 352.338L163.934 355.361Z" fill="#1c1f21"/>
<path d="M163.934 403.395L166.873 403.395L166.873 400.371L163.934 400.371L163.934 403.395Z" fill="#1c1f21"/>
<path d="M163.109 452.277L167.666 452.277L167.666 447.59L163.109 447.59L163.109 452.277Z" fill="#1c1f21"/>
<path d="M161.591 501.771L169.086 501.771L169.086 494.059L161.591 494.059L161.591 501.771Z" fill="#1c1f21"/>
<path d="M161.425 550.042L169.283 550.042L169.283 541.923L161.425 541.923L161.425 550.042Z" fill="#1c1f21"/>
<path d="M161.095 598.381L169.713 598.381L169.713 589.515L161.095 589.515L161.095 598.381Z" fill="#1c1f21"/>
<path d="M160.766 646.72L169.945 646.72L169.945 637.242L160.766 637.242L160.766 646.72Z" fill="#1c1f21"/>
<path d="M160.766 694.685L169.945 694.685L169.945 685.309L160.766 685.309L160.766 694.685Z" fill="#1c1f21"/>
<path d="M118.039 18.3486L119.359 18.3486L119.359 17.0917L118.039 17.0917L118.039 18.3486Z" fill="#1c1f21"/>
<path d="M117.808 66.585L119.492 66.585L119.492 64.9204L117.808 64.9204L117.808 66.585Z" fill="#1c1f21"/>
<path d="M117.808 114.652L119.492 114.652L119.492 112.988L117.808 112.988L117.808 114.652Z" fill="#1c1f21"/>
<path d="M117.808 162.686L119.492 162.686L119.492 160.919L117.808 160.919L117.808 162.686Z" fill="#1c1f21"/>
<path d="M117.808 210.616L119.492 210.616L119.492 208.952L117.808 208.952L117.808 210.616Z" fill="#1c1f21"/>
<path d="M117.711 258.854L119.725 258.854L119.725 256.781L117.711 256.781L117.711 258.854Z" fill="#1c1f21"/>
<path d="M117.808 306.683L119.492 306.683L119.492 305.018L117.808 305.018L117.808 306.683Z" fill="#1c1f21"/>
<path d="M115.991 356.618L121.373 356.618L121.373 351.081L115.991 351.081L115.991 356.618Z" fill="#1c1f21"/>
<path d="M116.884 403.836L120.516 403.836L120.516 399.963L116.884 399.963L116.884 403.836Z" fill="#1c1f21"/>
<path d="M115.199 453.534L122.199 453.534L122.199 446.333L115.199 446.333L115.199 453.534Z" fill="#1c1f21"/>
<path d="M115.199 501.465L122.199 501.465L122.199 494.365L115.199 494.365L115.199 501.465Z" fill="#1c1f21"/>
<path d="M114.605 550.245L122.793 550.245L122.793 541.719L114.605 541.719L114.605 550.245Z" fill="#1c1f21"/>
<path d="M114.374 598.381L122.992 598.381L122.992 589.515L114.374 589.515L114.374 598.381Z" fill="#1c1f21"/>
<path d="M114.077 646.72L123.289 646.72L123.289 637.242L114.077 637.242L114.077 646.72Z" fill="#1c1f21"/>
<path d="M114.077 694.685L123.289 694.685L123.289 685.309L114.077 685.309L114.077 694.685Z" fill="#1c1f21"/>
<path d="M71.3512 18.3486L72.6719 18.3486L72.6719 17.0917L71.3512 17.0917L71.3512 18.3486Z" fill="#1c1f21"/>
<path d="M71.3512 66.3809L72.6719 66.3809L72.6719 65.1239L71.3512 65.1239L71.3512 66.3809Z" fill="#1c1f21"/>
<path d="M71.1872 114.652L72.8711 114.652L72.8711 112.988L71.1872 112.988L71.1872 114.652Z" fill="#1c1f21"/>
<path d="M71.1872 162.686L72.8711 162.686L72.8711 160.919L71.1872 160.919L71.1872 162.686Z" fill="#1c1f21"/>
<path d="M71.1872 210.616L72.8711 210.616L72.8711 208.952L71.1872 208.952L71.1872 210.616Z" fill="#1c1f21"/>
<path d="M70.1633 259.703L73.8613 259.703L73.8613 255.966L70.1633 255.966L70.1633 259.703Z" fill="#1c1f21"/>
<path d="M71.0208 306.921L73.002 306.921L73.002 304.849L71.0208 304.849L71.0208 306.921Z" fill="#1c1f21"/>
<path d="M69.3715 356.618L74.6875 356.618L74.6875 351.081L69.3715 351.081L69.3715 356.618Z" fill="#1c1f21"/>
<path d="M69.1399 404.855L74.9512 404.855L74.9512 398.911L69.1399 398.911L69.1399 404.855Z" fill="#1c1f21"/>
<path d="M68.7107 453.33L75.2812 453.33L75.2813 446.57L68.7107 446.57L68.7107 453.33Z" fill="#1c1f21"/>
<path d="M68.5119 501.465L75.5117 501.465L75.5117 494.365L68.5119 494.365L68.5119 501.465Z" fill="#1c1f21"/>
<path d="M68.0831 550.042L75.9414 550.042L75.9414 541.923L68.0831 541.923L68.0831 550.042Z" fill="#1c1f21"/>
<path d="M67.687 598.381L76.3047 598.381L76.3047 589.515L67.687 589.515L67.687 598.381Z" fill="#1c1f21"/>
<path d="M67.4225 646.72L76.6016 646.72L76.6016 637.242L67.4225 637.242L67.4225 646.72Z" fill="#1c1f21"/>
<path d="M67.4225 694.685L76.6016 694.685L76.6016 685.309L67.4225 685.309L67.4225 694.685Z" fill="#1c1f21"/>
<path d="M24.6965 18.3477L25.9512 18.3477L25.9512 17.0907L24.6965 17.0907L24.6965 18.3477Z" fill="#1c1f21"/>
<path d="M24.6965 66.3809L25.9512 66.3809L25.9512 65.1239L24.6965 65.1239L24.6965 66.3809Z" fill="#1c1f21"/>
<path d="M24.6965 114.414L25.9512 114.414L25.9512 113.055L24.6965 113.055L24.6965 114.414Z" fill="#1c1f21"/>
<path d="M24.6965 162.481L25.9512 162.481L25.9512 161.123L24.6965 161.123L24.6965 162.481Z" fill="#1c1f21"/>
<path d="M24.5306 210.616L26.1484 210.616L26.1484 208.952L24.5306 208.952L24.5306 210.616Z" fill="#1c1f21"/>
<path d="M24.5306 258.649L26.1484 258.649L26.1484 256.985L24.5306 256.985L24.5306 258.649Z" fill="#1c1f21"/>
<path d="M23.6728 307.532L26.9746 307.532L26.9746 304.203L23.6728 304.203L23.6728 307.532Z" fill="#1c1f21"/>
<path d="M22.8811 356.414L27.8008 356.414L27.8008 351.319L22.8811 351.319L22.8811 356.414Z" fill="#1c1f21"/>
<path d="M22.6822 404.651L27.998 404.651L27.998 399.114L22.6822 399.114L22.6822 404.651Z" fill="#1c1f21"/>
<path d="M22.1872 453.126L28.4277 453.126L28.4277 446.774L22.1872 446.774L22.1872 453.126Z" fill="#1c1f21"/>
<path d="M21.8573 501.465L28.791 501.465L28.791 494.365L21.8573 494.365L21.8573 501.465Z" fill="#1c1f21"/>
<path d="M21.8573 549.498L28.791 549.498L28.791 542.398L21.8573 542.398L21.8573 549.498Z" fill="#1c1f21"/>
<path d="M20.9995 598.381L29.6172 598.381L29.6172 589.515L20.9995 589.515L20.9995 598.381Z" fill="#1c1f21"/>
<path d="M20.801 646.72L29.9141 646.72L29.9141 637.242L20.801 637.242L20.801 646.72Z" fill="#1c1f21"/>
<path d="M20.6021 694.888L30.1113 694.888L30.1113 685.104L20.6021 685.104L20.6021 694.888Z" fill="#1c1f21"/>
</svg>
